<svg xmlns="http://www.w3.org/2000/svg" viewBox="0 0 60 66"><title>jnpr-social-icon</title><path d="M55.328 31.18a11.871 11.871 0 0 0-11.086-19.202c-4.126.648-6.817 3.763-9.619 6.564q-5.655 5.653-11.314 11.304L6.685 46.46l22.702-6.09 15.446-4.144c3.826-1.027 7.87-1.798 10.495-5.047z" opacity=".33" fill="#fff"/><path d="M44.227 53.973A11.871 11.871 0 0 0 55.313 34.77c-2.624-3.25-6.668-4.022-10.494-5.048q-7.724-2.071-15.447-4.146l-22.7-6.09q8.311 8.309 16.625 16.616l11.312 11.304c2.802 2.8 5.492 5.918 9.618 6.566z" opacity=".33" fill="#fff"/><path d="M19.123 55.895a11.871 11.871 0 0 0 22.172 0c1.503-3.897.15-7.786-.875-11.612q-2.068-7.724-4.132-15.45L30.21 6.129q-3.04 11.352-6.077 22.705Q22.065 36.56 20 44.283c-1.024 3.826-2.38 7.715-.878 11.612z" opacity=".33" fill="#fff"/><path d="M4.697 34.774a11.871 11.871 0 0 0 11.086 19.201c4.126-.647 6.817-3.763 9.619-6.563q5.655-5.653 11.314-11.304Q45.027 27.8 53.34 19.493l-22.702 6.09q-7.725 2.072-15.446 4.145c-3.826 1.026-7.87 1.797-10.495 5.046z" opacity=".33" fill="#fff"/><path d="M15.782 11.976A11.871 11.871 0 0 0 4.697 31.178c2.623 3.25 6.667 4.022 10.493 5.048q7.724 2.071 15.447 4.146l22.7 6.09q-8.311-8.309-16.625-16.616L25.4 18.542c-2.802-2.8-5.492-5.918-9.618-6.566z" opacity=".33" fill="#fff"/><path d="M41.086 10.245a11.871 11.871 0 0 0-22.171 0c-1.503 3.897-.15 7.785.875 11.612q2.068 7.724 4.132 15.45L30 60.01q3.04-11.352 6.077-22.706l4.133-15.448c1.024-3.827 2.379-7.715.877-11.612z" opacity=".6" fill="#fff"/></svg>